<svg version="1.1" id="Layer_1" xmlns="http://www.w3.org/2000/svg" xmlns:xlink="http://www.w3.org/1999/xlink" x="0px" y="0px"
	 width="100%" viewBox="0 0 1024 1024" enable-background="new 0 0 1024 1024" xml:space="preserve">
<path fill="#FDFDFD" opacity="1.000000" stroke="none" 
	d="
M576.000000,1025.000000 
	C384.000000,1025.000000 192.500000,1025.000000 1.000000,1025.000000 
	C1.000000,683.666687 1.000000,342.333344 1.000000,1.000000 
	C342.333344,1.000000 683.666687,1.000000 1025.000000,1.000000 
	C1025.000000,342.333344 1025.000000,683.666687 1025.000000,1025.000000 
	C875.500000,1025.000000 726.000000,1025.000000 576.000000,1025.000000 
M728.201355,903.242432 
	C727.825745,902.404053 727.450195,901.565735 727.075500,899.993958 
	C717.708984,876.894714 708.718872,853.633362 698.858582,830.746887 
	C690.767883,811.967529 680.237061,794.814453 663.497192,781.994812 
	C641.801880,765.380249 623.842102,745.052673 607.374023,723.336731 
	C598.616760,711.788818 589.503906,700.591125 577.373596,692.171143 
	C548.748413,672.301636 525.493408,647.084045 504.589569,619.375244 
	C496.063446,608.073547 490.476929,596.173462 489.912354,581.375427 
	C489.830139,580.939758 489.747955,580.504028 489.763031,579.317566 
	C489.657379,578.831360 489.551758,578.345215 489.585388,577.423767 
	C489.559418,577.098572 489.417694,576.835693 489.350922,575.772339 
	C488.231049,556.103577 485.659302,536.790771 479.011658,518.009583 
	C470.131012,492.919617 462.375732,467.404541 449.383179,444.004730 
	C447.285645,440.227112 444.063385,436.714050 440.582703,434.125183 
	C423.297241,421.268402 403.183929,413.943939 383.507355,405.820862 
	C382.319733,405.330597 380.607239,405.585205 379.297180,405.996796 
	C358.510132,412.527679 337.770935,419.211731 316.957611,425.656799 
	C313.931274,426.593964 312.292023,428.085602 311.171478,431.010773 
	C301.354218,456.638458 290.888977,482.031708 281.690430,507.876923 
	C276.826324,521.543579 269.314697,532.211670 257.198578,540.118225 
	C253.988037,542.213318 251.235840,546.059937 249.831741,549.702942 
	C240.980072,572.669067 232.755890,595.877319 223.878662,618.833130 
	C221.641846,624.617310 218.533997,630.415588 214.536209,635.108215 
	C195.198746,657.806824 175.371613,680.087708 155.890137,702.665161 
	C154.253983,704.561340 153.076920,707.552551 153.062271,710.043152 
	C152.874084,742.038513 152.913254,774.035339 152.941696,806.031799 
	C152.971893,840.023560 153.052155,874.015381 153.298859,908.878906 
	C155.109802,908.998352 156.920761,909.222656 158.731705,909.222290 
	C283.498077,909.198792 408.264465,909.162354 533.030823,909.108459 
	C544.352417,909.103577 555.673950,908.976074 567.917847,909.087952 
	C583.950256,909.024231 599.982727,908.960449 616.936340,909.071106 
	C654.537415,909.071106 692.138428,909.071106 730.494690,909.071106 
	C729.557434,906.990784 728.843628,905.406250 728.101929,903.952332 
	C728.101929,903.952332 728.235352,903.947021 728.201355,903.242432 
M383.632996,243.474594 
	C427.702271,243.503540 471.771545,243.553375 515.840820,243.549942 
	C530.967407,243.548767 546.093994,243.414398 562.068420,243.664078 
	C570.179504,244.451263 578.356689,244.822586 586.389771,246.100037 
	C615.899475,250.792770 640.648499,264.017792 658.424133,288.499512 
	C695.165466,339.101837 678.314209,412.691620 623.102966,444.139008 
	C606.004456,453.878021 587.527405,458.740021 567.229126,460.356720 
	C561.919373,460.472382 556.609741,460.677521 551.299744,460.688080 
	C529.705933,460.731079 508.111877,460.688171 486.518250,460.775543 
	C484.989349,460.781708 483.463684,461.584717 481.995819,462.764221 
	C482.098419,463.080078 482.188812,463.400543 482.305420,463.711151 
	C496.169434,500.652374 510.387390,537.497986 510.243378,577.878723 
	C510.202301,589.394592 515.306885,598.652710 522.097351,607.815247 
	C542.104492,634.811340 565.350769,658.248779 592.578003,678.032349 
	C601.318298,684.383118 608.829041,692.820251 615.690735,701.285034 
	C633.110107,722.773926 649.766724,744.927002 671.631714,762.269104 
	C691.540588,778.059753 706.121521,797.780151 715.924072,821.069397 
	C724.111877,840.522461 732.023865,860.093079 739.906128,879.672791 
	C743.793762,889.329590 747.338196,899.124573 751.906616,909.224792 
	C762.871033,909.229370 773.835510,909.238403 784.799927,909.237488 
	C814.038574,909.235107 843.277344,909.246033 872.515747,909.164551 
	C873.799500,909.160950 875.080933,908.296082 876.176880,907.143921 
	C819.238464,813.761902 762.299194,720.380493 705.362732,626.997314 
	C696.974854,613.240051 688.600708,599.474365 680.045837,585.426331 
	C708.156738,579.648132 733.655396,568.527405 757.624756,553.830505 
	C806.349854,523.954651 839.464294,481.794281 856.165039,427.057129 
	C869.591431,383.051453 871.881592,338.213348 863.003418,293.192902 
	C844.080933,197.238174 787.828552,134.181351 693.950317,106.007103 
	C652.678528,93.620827 609.867554,90.196266 566.966736,90.051559 
	C457.970215,89.683868 348.971619,89.912384 239.973862,89.926086 
	C211.311813,89.929688 182.649780,90.020119 153.433136,90.021477 
	C153.322220,90.341393 153.211319,90.661301 152.944107,91.909538 
	C152.944107,286.645416 152.944107,481.381317 152.944107,676.691040 
	C153.864685,675.959167 154.266190,675.728210 154.554276,675.398193 
	C169.895187,657.827942 185.292603,640.306152 200.488556,622.611267 
	C202.803375,619.915771 204.651443,616.593262 205.914322,613.257446 
	C213.982834,591.944885 222.390610,570.733582 229.533279,549.107910 
	C233.792953,536.210999 241.105774,526.693726 252.185638,519.197144 
	C255.891953,516.689392 259.107758,512.341797 260.786560,508.132721 
	C271.939728,480.169373 282.727814,452.058075 293.378418,423.897980 
	C296.703156,415.107330 302.227631,409.383423 311.467194,407.014435 
	C318.222168,405.282501 324.839905,402.979492 331.450134,400.729309 
	C337.654999,398.617157 343.769714,396.240204 350.199768,393.080078 
	C350.187714,343.352356 350.175629,293.624664 350.472595,243.816116 
	C350.681946,243.706818 350.795471,243.534439 351.567566,243.394455 
	C352.562256,243.321716 353.556915,243.248978 355.196167,243.514404 
	C356.614410,243.401642 358.032623,243.288895 360.275360,243.422394 
	C367.242065,243.364777 374.208740,243.307159 381.698456,243.540482 
	C382.071930,243.442978 382.445435,243.345474 383.632996,243.474594 
z"/>
<path fill="#C73B2B" opacity="1.000000" stroke="none" 
	d="
M153.987732,90.070679 
	C182.649780,90.020119 211.311813,89.929688 239.973862,89.926086 
	C348.971619,89.912384 457.970215,89.683868 566.966736,90.051559 
	C609.867554,90.196266 652.678528,93.620827 693.950317,106.007103 
	C787.828552,134.181351 844.080933,197.238174 863.003418,293.192902 
	C871.881592,338.213348 869.591431,383.051453 856.165039,427.057129 
	C839.464294,481.794281 806.349854,523.954651 757.624756,553.830505 
	C733.655396,568.527405 708.156738,579.648132 680.045837,585.426331 
	C688.600708,599.474365 696.974854,613.240051 705.362732,626.997314 
	C762.299194,720.380493 819.238464,813.761902 875.778198,907.531494 
	C835.843445,907.945984 796.307312,907.961121 756.771301,908.036316 
	C754.859680,908.039978 752.949036,908.571350 751.037964,908.857056 
	C747.338196,899.124573 743.793762,889.329590 739.906128,879.672791 
	C732.023865,860.093079 724.111877,840.522461 715.924072,821.069397 
	C706.121521,797.780151 691.540588,778.059753 671.631714,762.269104 
	C649.766724,744.927002 633.110107,722.773926 615.690735,701.285034 
	C608.829041,692.820251 601.318298,684.383118 592.578003,678.032349 
	C565.350769,658.248779 542.104492,634.811340 522.097351,607.815247 
	C515.306885,598.652710 510.202301,589.394592 510.243378,577.878723 
	C510.387390,537.497986 496.169434,500.652374 482.305420,463.711151 
	C482.188812,463.400543 482.098419,463.080078 482.439056,462.388428 
	C506.432617,462.008270 529.982910,462.003540 553.533264,461.999908 
	C558.342834,461.999176 563.152466,462.007141 567.961060,461.939789 
	C568.008362,461.939148 568.041992,460.965973 568.082031,460.446808 
	C587.527405,458.740021 606.004456,453.878021 623.102966,444.139008 
	C678.314209,412.691620 695.165466,339.101837 658.424133,288.499512 
	C640.648499,264.017792 615.899475,250.792770 586.389771,246.100037 
	C578.356689,244.822586 570.179504,244.451263 561.970703,243.346512 
	C563.883240,242.921127 565.893494,242.813293 567.903809,242.705475 
	C567.367737,242.124023 566.877747,242.019318 566.387817,242.019241 
	C496.042023,242.008942 425.696259,241.998154 355.350494,242.057266 
	C353.837738,242.058548 352.325623,242.867020 350.813202,243.298950 
	C350.795471,243.534439 350.681946,243.706818 349.992371,244.142609 
	C349.342224,245.603073 349.024292,246.736938 349.023682,247.870987 
	C348.998840,295.167236 348.994476,342.463501 349.041077,389.759735 
	C349.042480,391.166687 349.616852,392.573090 349.924072,393.979736 
	C343.769714,396.240204 337.654999,398.617157 331.450134,400.729309 
	C324.839905,402.979492 318.222168,405.282501 311.467194,407.014435 
	C302.227631,409.383423 296.703156,415.107330 293.378418,423.897980 
	C282.727814,452.058075 271.939728,480.169373 260.786560,508.132721 
	C259.107758,512.341797 255.891953,516.689392 252.185638,519.197144 
	C241.105774,526.693726 233.792953,536.210999 229.533279,549.107910 
	C222.390610,570.733582 213.982834,591.944885 205.914322,613.257446 
	C204.651443,616.593262 202.803375,619.915771 200.488556,622.611267 
	C185.292603,640.306152 169.895187,657.827942 154.554276,675.398193 
	C154.266190,675.728210 153.864685,675.959167 152.944107,676.691040 
	C152.944107,481.381317 152.944107,286.645416 153.220154,91.348251 
	C153.741837,90.604347 153.905685,90.365585 153.987732,90.070679 
z"/>
<path fill="#C73B2B" opacity="1.000000" stroke="none" 
	d="
M489.799316,582.038940 
	C490.476929,596.173462 496.063446,608.073547 504.589569,619.375244 
	C525.493408,647.084045 548.748413,672.301636 577.373596,692.171143 
	C589.503906,700.591125 598.616760,711.788818 607.374023,723.336731 
	C623.842102,745.052673 641.801880,765.380249 663.497192,781.994812 
	C680.237061,794.814453 690.767883,811.967529 698.858582,830.746887 
	C708.718872,853.633362 717.708984,876.894714 727.070068,900.737183 
	C727.454834,902.302673 727.845093,903.124817 728.235352,903.947021 
	C728.235352,903.947021 728.101929,903.952332 728.080933,904.324341 
	C728.263489,908.816772 725.245605,907.983215 722.887146,907.985046 
	C687.270325,908.013184 651.653442,908.015259 616.024902,908.016541 
	C616.013184,908.009583 615.997559,907.992676 615.993530,907.622131 
	C615.846252,906.608704 615.853333,905.878418 615.538025,905.335510 
	C604.026611,885.520752 592.626526,865.639038 580.884399,845.961609 
	C575.547852,837.018738 570.557312,827.624756 561.263184,821.856323 
	C554.500732,817.659058 547.841248,813.252869 540.837646,809.495789 
	C525.486206,801.260437 512.107422,790.519226 502.342438,776.237061 
	C488.020752,755.290222 474.993195,733.463074 460.989380,712.292114 
	C455.339447,703.750488 449.239105,695.295532 442.116333,687.999329 
	C435.109039,680.821350 426.561554,675.142761 418.661926,668.841309 
	C412.783630,664.152405 406.523407,660.189941 405.853149,651.230957 
	C405.215393,642.706238 402.909882,634.312866 401.469238,625.839355 
	C400.404724,619.578003 399.551544,613.280823 398.604218,606.999573 
	C399.132965,606.769409 399.661682,606.539185 400.190430,606.309021 
	C404.461914,611.876587 408.915466,617.315247 412.968628,623.037476 
	C422.709930,636.790100 433.532013,649.281128 447.848450,658.705261 
	C457.644745,665.154053 467.305298,672.213684 473.004211,683.069763 
	C477.688232,691.992310 483.586334,699.936707 491.131622,706.656677 
	C495.471313,710.521790 499.340179,715.014221 504.037445,718.358337 
	C513.430115,725.045044 523.041260,731.483704 532.961182,737.350037 
	C539.499451,741.216614 547.502747,742.873169 553.497314,747.336243 
	C566.092896,756.713989 578.270264,766.781860 589.752258,777.495667 
	C605.478821,792.170227 622.853882,803.452942 643.952393,808.457397 
	C649.621704,809.802124 655.332458,810.972168 661.024109,812.222473 
	C654.938599,805.340393 648.277466,799.679932 642.050476,793.576721 
	C631.974609,783.701111 621.829346,773.855713 612.365540,763.406860 
	C601.356934,751.252319 591.252014,738.283142 580.366089,726.012390 
	C573.554382,718.334290 564.092773,714.677246 554.632690,711.370911 
	C545.412048,708.148193 537.649597,703.255493 532.644958,694.464539 
	C527.718323,685.810791 522.630798,677.231506 517.220947,668.873901 
	C508.656586,655.642883 498.915894,643.099854 491.229065,629.393005 
	C481.923004,612.798767 469.613434,600.899963 451.265442,594.962402 
	C436.988525,590.342346 426.485748,580.914185 419.453674,567.321899 
	C413.348572,555.521423 401.841370,550.455444 388.682709,545.173706 
	C385.509003,597.408264 375.488159,647.281860 357.113739,694.366516 
	C368.697754,700.420410 380.467529,704.666199 389.836090,711.985535 
	C399.874725,719.828186 408.450073,729.953430 416.264740,740.154419 
	C437.429352,767.781982 457.852631,795.977417 478.566986,823.949829 
	C479.343323,824.998169 480.089386,826.068848 481.202698,827.621704 
	C479.900085,827.539612 479.521759,827.627441 479.279114,827.484680 
	C452.657104,811.821533 429.671417,791.721802 410.007935,768.123718 
	C396.105255,751.439209 378.828857,741.097839 358.453430,735.060059 
	C354.886169,734.002930 351.290619,733.041382 347.332489,731.930237 
	C347.195984,733.913696 346.907776,735.232727 347.049530,736.503662 
	C348.020691,745.211609 348.977264,753.923401 350.138123,762.607361 
	C352.021027,776.692261 354.108765,790.749939 355.990387,804.835022 
	C356.439209,808.194763 358.085175,809.763611 361.266907,811.062683 
	C373.854095,816.202148 386.600739,821.124023 398.655579,827.351318 
	C414.276276,835.420715 426.917084,847.623779 439.346313,859.884277 
	C445.496002,865.950500 452.113892,870.038330 461.394592,869.144653 
	C468.823853,868.429199 476.425751,868.476685 483.860352,869.164856 
	C490.048218,869.737671 496.624329,870.653687 502.122589,873.299927 
	C519.633179,881.727539 536.777039,890.928589 553.930237,900.078918 
	C557.902405,902.197815 561.348755,905.302429 564.567017,907.968262 
	C427.101501,907.991028 290.106049,907.999084 153.110565,908.007141 
	C153.052155,874.015381 152.971893,840.023560 152.941696,806.031799 
	C152.913254,774.035339 152.874084,742.038513 153.062271,710.043152 
	C153.076920,707.552551 154.253983,704.561340 155.890137,702.665161 
	C175.371613,680.087708 195.198746,657.806824 214.536209,635.108215 
	C218.533997,630.415588 221.641846,624.617310 223.878662,618.833130 
	C232.755890,595.877319 240.980072,572.669067 249.831741,549.702942 
	C251.235840,546.059937 253.988037,542.213318 257.198578,540.118225 
	C269.314697,532.211670 276.826324,521.543579 281.690430,507.876923 
	C290.888977,482.031708 301.354218,456.638458 311.171478,431.010773 
	C312.292023,428.085602 313.931274,426.593964 316.957611,425.656799 
	C337.770935,419.211731 358.510132,412.527679 379.297180,405.996796 
	C380.607239,405.585205 382.319733,405.330597 383.507355,405.820862 
	C403.183929,413.943939 423.297241,421.268402 440.582703,434.125183 
	C444.063385,436.714050 447.285645,440.227112 449.383179,444.004730 
	C462.375732,467.404541 470.131012,492.919617 479.011658,518.009583 
	C485.659302,536.790771 488.231049,556.103577 489.230042,576.422119 
	C489.119568,577.377869 489.231873,577.640259 489.446106,577.859009 
	C489.551758,578.345215 489.657379,578.831360 489.422302,579.791992 
	C488.719482,579.869507 487.999969,579.420776 488.048920,579.083618 
	C488.754608,574.222046 486.197174,570.800354 483.744904,566.887878 
	C477.492828,556.912903 471.052246,546.877197 466.373627,536.131470 
	C455.920807,512.123962 446.748108,487.561523 436.491333,463.464661 
	C433.570892,456.603485 430.108887,449.489502 422.639130,445.824982 
	C413.839539,441.508057 405.129456,437.007996 396.312469,432.727539 
	C393.264954,431.248077 390.013550,430.188599 387.056030,429.016815 
	C387.056030,436.752136 386.702728,444.000580 387.124542,451.203644 
	C388.237122,470.202637 389.892609,489.171021 390.900574,508.174469 
	C391.310059,515.894531 393.041595,522.151550 401.273895,524.652588 
	C401.588562,524.748230 401.893311,524.907776 402.172272,525.085327 
	C413.779572,532.467957 425.574982,539.502747 433.080475,551.801697 
	C435.691223,556.079895 439.667603,559.611023 443.361847,563.124084 
	C451.795715,571.144287 463.309692,572.537903 473.491089,576.835083 
	C478.893127,579.114990 483.847778,582.454956 488.828033,585.218567 
	C488.965088,584.769897 489.382202,583.404419 489.799316,582.038940 
M298.232056,649.664978 
	C297.962463,651.248169 297.692841,652.831360 297.375732,654.693542 
	C302.606537,655.946228 307.686005,656.827515 312.524567,658.434204 
	C316.005829,659.590210 317.091400,658.098755 317.739899,655.303772 
	C318.862793,650.463928 319.932007,645.611511 321.027008,640.765137 
	C324.582245,625.029968 328.139008,609.295105 331.695190,593.560181 
	C332.019836,593.465637 332.344482,593.371155 332.669128,593.276611 
	C337.273102,605.081604 341.877075,616.886597 346.790405,629.484741 
	C359.750610,590.435669 356.148682,566.762268 326.996918,548.042419 
	C315.201752,581.120605 306.082062,614.786438 298.232056,649.664978 
z"/>
<path fill="#DF4430" opacity="1.000000" stroke="none" 
	d="
M489.855835,581.707153 
	C489.382202,583.404419 488.965088,584.769897 488.828033,585.218567 
	C483.847778,582.454956 478.893127,579.114990 473.491089,576.835083 
	C463.309692,572.537903 451.795715,571.144287 443.361847,563.124084 
	C439.667603,559.611023 435.691223,556.079895 433.080475,551.801697 
	C425.574982,539.502747 413.779572,532.467957 402.172272,525.085327 
	C401.893311,524.907776 401.588562,524.748230 401.273895,524.652588 
	C393.041595,522.151550 391.310059,515.894531 390.900574,508.174469 
	C389.892609,489.171021 388.237122,470.202637 387.124542,451.203644 
	C386.702728,444.000580 387.056030,436.752136 387.056030,429.016815 
	C390.013550,430.188599 393.264954,431.248077 396.312469,432.727539 
	C405.129456,437.007996 413.839539,441.508057 422.639130,445.824982 
	C430.108887,449.489502 433.570892,456.603485 436.491333,463.464661 
	C446.748108,487.561523 455.920807,512.123962 466.373627,536.131470 
	C471.052246,546.877197 477.492828,556.912903 483.744904,566.887878 
	C486.197174,570.800354 488.754608,574.222046 488.048920,579.083618 
	C487.999969,579.420776 488.719482,579.869507 489.373657,580.167358 
	C489.747955,580.504028 489.830139,580.939758 489.855835,581.707153 
z"/>
<path fill="#BB281C" opacity="1.000000" stroke="none" 
	d="
M153.204712,908.442993 
	C290.106049,907.999084 427.101501,907.991028 564.888794,907.984253 
	C566.110291,908.000916 566.540039,908.016235 566.976074,908.250061 
	C566.982483,908.468506 566.995544,908.905457 566.995544,908.905457 
	C555.673950,908.976074 544.352417,909.103577 533.030823,909.108459 
	C408.264465,909.162354 283.498077,909.198792 158.731705,909.222290 
	C156.920761,909.222656 155.109802,908.998352 153.204712,908.442993 
z"/>
<path fill="#BD2416" opacity="1.000000" stroke="none" 
	d="
M351.190369,243.346710 
	C352.325623,242.867020 353.837738,242.058548 355.350494,242.057266 
	C425.696259,241.998154 496.042023,242.008942 566.387817,242.019241 
	C566.877747,242.019318 567.367737,242.124023 567.903809,242.705475 
	C565.893494,242.813293 563.883240,242.921127 561.546753,243.184906 
	C546.093994,243.414398 530.967407,243.548767 515.840820,243.549942 
	C471.771545,243.553375 427.702271,243.503540 383.079956,243.256195 
	C382.076447,243.108368 381.625946,243.178955 381.175446,243.249542 
	C374.208740,243.307159 367.242065,243.364777 359.375427,243.210907 
	C357.167511,243.058365 355.859558,243.117310 354.551605,243.176239 
	C353.556915,243.248978 352.562256,243.321716 351.190369,243.346710 
z"/>
<path fill="#BD2618" opacity="1.000000" stroke="none" 
	d="
M350.061890,393.529907 
	C349.616852,392.573090 349.042480,391.166687 349.041077,389.759735 
	C348.994476,342.463501 348.998840,295.167236 349.023682,247.870987 
	C349.024292,246.736938 349.342224,245.603073 349.837860,244.183029 
	C350.175629,293.624664 350.187714,343.352356 350.061890,393.529907 
z"/>
<path fill="#BA2318" opacity="1.000000" stroke="none" 
	d="
M751.472290,909.040894 
	C752.949036,908.571350 754.859680,908.039978 756.771301,908.036316 
	C796.307312,907.961121 835.843445,907.945984 875.871460,907.875671 
	C875.080933,908.296082 873.799500,909.160950 872.515747,909.164551 
	C843.277344,909.246033 814.038574,909.235107 784.799927,909.237488 
	C773.835510,909.238403 762.871033,909.229370 751.472290,909.040894 
z"/>
<path fill="#BB2A1F" opacity="1.000000" stroke="none" 
	d="
M616.036621,908.023499 
	C651.653442,908.015259 687.270325,908.013184 722.887146,907.985046 
	C725.245605,907.983215 728.263489,908.816772 728.094849,904.259033 
	C728.843628,905.406250 729.557434,906.990784 730.494690,909.071106 
	C692.138428,909.071106 654.537415,909.071106 616.478027,908.765503 
	C616.019714,908.459961 616.036621,908.023499 616.036621,908.023499 
z"/>
<path fill="#BA2617" opacity="1.000000" stroke="none" 
	d="
M567.655579,460.401764 
	C568.041992,460.965973 568.008362,461.939148 567.961060,461.939789 
	C563.152466,462.007141 558.342834,461.999176 553.533264,461.999908 
	C529.982910,462.003540 506.432617,462.008270 482.409393,462.014893 
	C483.463684,461.584717 484.989349,460.781708 486.518250,460.775543 
	C508.111877,460.688171 529.705933,460.731079 551.299744,460.688080 
	C556.609741,460.677521 561.919373,460.472382 567.655579,460.401764 
z"/>
<path fill="#D43424" opacity="1.000000" stroke="none" 
	d="
M616.024902,908.016541 
	C616.036621,908.023499 616.019714,908.459961 616.017456,908.678345 
	C599.982727,908.960449 583.950256,909.024231 567.456665,908.996704 
	C566.995544,908.905457 566.982483,908.468506 567.447998,908.237305 
	C583.941589,908.001587 599.969543,907.997131 615.997559,907.992676 
	C615.997559,907.992676 616.013184,908.009583 616.024902,908.016541 
z"/>
<path fill="#C73B2B" opacity="1.000000" stroke="none" 
	d="
M354.873901,243.345322 
	C355.859558,243.117310 357.167511,243.058365 358.963165,243.087784 
	C358.032623,243.288895 356.614410,243.401642 354.873901,243.345322 
z"/>
<path fill="#BB2A1F" opacity="1.000000" stroke="none" 
	d="
M728.218384,903.594727 
	C727.845093,903.124817 727.454834,902.302673 727.069580,901.103882 
	C727.450195,901.565735 727.825745,902.404053 728.218384,903.594727 
z"/>
<path fill="#C73B2B" opacity="1.000000" stroke="none" 
	d="
M381.436951,243.395020 
	C381.625946,243.178955 382.076447,243.108368 382.672913,243.142883 
	C382.445435,243.345474 382.071930,243.442978 381.436951,243.395020 
z"/>
<path fill="#DF4430" opacity="1.000000" stroke="none" 
	d="
M489.515747,577.641357 
	C489.231873,577.640259 489.119568,577.377869 489.134705,576.853516 
	C489.417694,576.835693 489.559418,577.098572 489.515747,577.641357 
z"/>
<path fill="#C12E1E" opacity="1.000000" stroke="none" 
	d="
M153.710434,90.046082 
	C153.905685,90.365585 153.741837,90.604347 153.298294,90.884094 
	C153.211319,90.661301 153.322220,90.341393 153.710434,90.046082 
z"/>
<path fill="#DF4430" opacity="1.000000" stroke="none" 
	d="
M615.993530,907.622131 
	C599.969543,907.997131 583.941589,908.001587 567.441650,908.018799 
	C566.540039,908.016235 566.110291,908.000916 565.358826,907.969482 
	C561.348755,905.302429 557.902405,902.197815 553.930237,900.078918 
	C536.777039,890.928589 519.633179,881.727539 502.122589,873.299927 
	C496.624329,870.653687 490.048218,869.737671 483.860352,869.164856 
	C476.425751,868.476685 468.823853,868.429199 461.394592,869.144653 
	C452.113892,870.038330 445.496002,865.950500 439.346313,859.884277 
	C426.917084,847.623779 414.276276,835.420715 398.655579,827.351318 
	C386.600739,821.124023 373.854095,816.202148 361.266907,811.062683 
	C358.085175,809.763611 356.439209,808.194763 355.990387,804.835022 
	C354.108765,790.749939 352.021027,776.692261 350.138123,762.607361 
	C348.977264,753.923401 348.020691,745.211609 347.049530,736.503662 
	C346.907776,735.232727 347.195984,733.913696 347.332489,731.930237 
	C351.290619,733.041382 354.886169,734.002930 358.453430,735.060059 
	C378.828857,741.097839 396.105255,751.439209 410.007935,768.123718 
	C429.671417,791.721802 452.657104,811.821533 479.279114,827.484680 
	C479.521759,827.627441 479.900085,827.539612 481.202698,827.621704 
	C480.089386,826.068848 479.343323,824.998169 478.566986,823.949829 
	C457.852631,795.977417 437.429352,767.781982 416.264740,740.154419 
	C408.450073,729.953430 399.874725,719.828186 389.836090,711.985535 
	C380.467529,704.666199 368.697754,700.420410 357.113739,694.366516 
	C375.488159,647.281860 385.509003,597.408264 388.682709,545.173706 
	C401.841370,550.455444 413.348572,555.521423 419.453674,567.321899 
	C426.485748,580.914185 436.988525,590.342346 451.265442,594.962402 
	C469.613434,600.899963 481.923004,612.798767 491.229065,629.393005 
	C498.915894,643.099854 508.656586,655.642883 517.220947,668.873901 
	C522.630798,677.231506 527.718323,685.810791 532.644958,694.464539 
	C537.649597,703.255493 545.412048,708.148193 554.632690,711.370911 
	C564.092773,714.677246 573.554382,718.334290 580.366089,726.012390 
	C591.252014,738.283142 601.356934,751.252319 612.365540,763.406860 
	C621.829346,773.855713 631.974609,783.701111 642.050476,793.576721 
	C648.277466,799.679932 654.938599,805.340393 661.024109,812.222473 
	C655.332458,810.972168 649.621704,809.802124 643.952393,808.457397 
	C622.853882,803.452942 605.478821,792.170227 589.752258,777.495667 
	C578.270264,766.781860 566.092896,756.713989 553.497314,747.336243 
	C547.502747,742.873169 539.499451,741.216614 532.961182,737.350037 
	C523.041260,731.483704 513.430115,725.045044 504.037445,718.358337 
	C499.340179,715.014221 495.471313,710.521790 491.131622,706.656677 
	C483.586334,699.936707 477.688232,691.992310 473.004211,683.069763 
	C467.305298,672.213684 457.644745,665.154053 447.848450,658.705261 
	C433.532013,649.281128 422.709930,636.790100 412.968628,623.037476 
	C408.915466,617.315247 404.461914,611.876587 400.190430,606.309021 
	C399.661682,606.539185 399.132965,606.769409 398.604218,606.999573 
	C399.551544,613.280823 400.404724,619.578003 401.469238,625.839355 
	C402.909882,634.312866 405.215393,642.706238 405.853149,651.230957 
	C406.523407,660.189941 412.783630,664.152405 418.661926,668.841309 
	C426.561554,675.142761 435.109039,680.821350 442.116333,687.999329 
	C449.239105,695.295532 455.339447,703.750488 460.989380,712.292114 
	C474.993195,733.463074 488.020752,755.290222 502.342438,776.237061 
	C512.107422,790.519226 525.486206,801.260437 540.837646,809.495789 
	C547.841248,813.252869 554.500732,817.659058 561.263184,821.856323 
	C570.557312,827.624756 575.547852,837.018738 580.884399,845.961609 
	C592.626526,865.639038 604.026611,885.520752 615.538025,905.335510 
	C615.853333,905.878418 615.846252,906.608704 615.993530,907.622131 
z"/>
<path fill="#DF4430" opacity="1.000000" stroke="none" 
	d="
M298.382538,649.285034 
	C306.082062,614.786438 315.201752,581.120605 326.996918,548.042419 
	C356.148682,566.762268 359.750610,590.435669 346.790405,629.484741 
	C341.877075,616.886597 337.273102,605.081604 332.669128,593.276611 
	C332.344482,593.371155 332.019836,593.465637 331.695190,593.560181 
	C328.139008,609.295105 324.582245,625.029968 321.027008,640.765137 
	C319.932007,645.611511 318.862793,650.463928 317.739899,655.303772 
	C317.091400,658.098755 316.005829,659.590210 312.524567,658.434204 
	C307.686005,656.827515 302.606537,655.946228 297.375732,654.693542 
	C297.692841,652.831360 297.962463,651.248169 298.382538,649.285034 
z"/>
</svg>